<svg width="64" height="64" viewBox="0 0 64 64" fill="none" xmlns="http://www.w3.org/2000/svg">
<path fill-rule="evenodd" clip-rule="evenodd" d="M47.763 53.3174C47.4939 55.9757 45.23 58 42.5261 58H20.474C17.7701 58 15.5061 55.9757 15.2371 53.3174L13.2118 33.3069C12.9377 30.5994 14.8226 28.141 17.5348 27.6685L31.817 25.1804C33.2483 24.931 34.204 23.5825 33.9516 22.1684C33.6993 20.7542 32.3344 19.81 30.9032 20.0593L17.787 22.3442C14.7717 22.8695 11.9409 20.7507 11.6362 17.7406L11.0266 11.7174C10.7168 8.65623 13.1498 6 16.2635 6H46.7365C49.8502 6 52.2832 8.65625 51.9734 11.7174L47.763 53.3174ZM30.5861 37.279C29.1548 37.5283 28.1991 38.8768 28.4515 40.291L29.3655 45.412C29.6178 46.8261 30.9827 47.7704 32.4139 47.5211C33.8452 47.2717 34.8009 45.9232 34.5485 44.509L33.6346 39.388C33.3822 37.9739 32.0174 37.0296 30.5861 37.279Z" fill="#78D72D"/>
</svg>
